<?xml version="1.0" standalone="no"?>
<!DOCTYPE svg PUBLIC "-//W3C//DTD SVG 20010904//EN"
 "http://www.w3.org/TR/2001/REC-SVG-20010904/DTD/svg10.dtd">
<svg version="1.0" xmlns="http://www.w3.org/2000/svg"
 width="2000.000000pt" height="231.000000pt" viewBox="0 0 2000.000000 231.000000"
 preserveAspectRatio="xMidYMid meet">

<g transform="translate(0.000000,231.000000) scale(0.100000,-0.100000)"
fill="#000000" stroke="none">
<path d="M4110 2270 c-230 -15 -388 -44 -440 -80 -17 -12 -20 -9 66 -62 24
-15 44 -31 44 -36 0 -5 -84 -78 -187 -162 -103 -85 -243 -202 -311 -262 -141
-123 -161 -130 -223 -79 l-35 29 -445 11 c-244 6 -677 16 -962 22 l-518 10
-107 -49 c-93 -42 -124 -51 -232 -66 -145 -20 -295 -55 -389 -93 -60 -23 -181
-89 -181 -98 0 -2 45 -88 99 -192 l99 -188 -35 -30 -35 -30 41 -150 c22 -83
50 -202 62 -265 11 -63 22 -116 23 -117 3 -3 328 13 452 23 l82 6 12 80 c27
185 98 337 209 448 129 128 268 177 476 167 125 -6 177 -18 267 -62 116 -56
222 -181 277 -324 33 -86 71 -257 71 -321 l0 -41 148 6 c81 3 365 10 632 16
1422 30 2144 49 2150 56 4 4 12 51 18 103 36 303 213 528 467 594 98 26 228
30 335 12 279 -49 460 -246 502 -549 7 -45 12 -83 13 -84 1 -2 120 13 265 31
264 34 264 34 290 64 14 17 88 101 165 187 127 142 144 165 183 253 l43 96
-25 106 c-39 164 -46 216 -46 327 l0 103 -114 0 c-63 0 -149 5 -192 11 -101
14 -473 106 -707 175 -16 5 -17 3 -8 -15 7 -12 8 -21 4 -21 -4 0 -163 33 -353
74 -391 84 -749 156 -778 156 -27 0 -48 27 -76 96 l-24 59 -83 17 c-46 9 -129
22 -184 28 -134 15 -636 21 -805 10z m450 -220 c180 -12 305 -27 393 -47 77
-17 84 -27 73 -117 -7 -52 -72 -315 -80 -323 -6 -6 -1212 -34 -1330 -31 l-101
3 170 171 c225 226 360 326 464 344 67 11 245 11 411 0z m776 -188 c8 -5 5
-42 -12 -132 -13 -69 -23 -135 -24 -147 0 -21 -5 -23 -60 -23 l-60 0 6 43 c13
86 44 228 54 247 8 15 21 20 48 20 20 0 42 -4 48 -8z m202 -37 c2 -2 -5 -57
-17 -122 -12 -65 -21 -121 -21 -126 0 -4 -27 -7 -61 -7 l-61 0 6 28 c3 15 10
56 16 92 6 36 16 85 22 109 l11 43 51 -7 c28 -3 52 -8 54 -10z m200 -40 c1 -1
-5 -48 -14 -104 l-17 -101 -36 0 c-20 0 -46 -3 -58 -6 -20 -6 -23 -3 -23 24 0
30 28 191 36 203 3 5 103 -9 112 -16z m194 -46 c89 -24 100 -40 79 -110 -11
-36 -14 -39 -49 -39 -20 0 -68 -3 -106 -7 -64 -6 -68 -5 -63 13 3 10 11 52 17
92 14 83 9 81 122 51z m-445 -575 c2 -6 -28 -30 -68 -54 -129 -77 -218 -186
-284 -351 -18 -44 -34 -82 -36 -84 -2 -2 -442 -8 -978 -15 -924 -10 -1013 -9
-989 15 3 3 430 26 949 51 518 24 944 46 944 47 1 1 21 41 43 89 23 48 64 117
92 153 l49 65 -102 0 c-406 0 -2414 33 -2421 41 -5 5 -7 11 -3 15 6 6 2372 42
2646 40 104 -1 156 -5 158 -12z"/>
<path d="M15852 2083 c-51 -4 -53 -5 -50 -30 2 -15 -3 -28 -9 -30 -8 -3 -13 4
-13 16 0 30 -13 32 -76 13 -54 -17 -59 -20 -56 -45 3 -31 -17 -37 -25 -7 -3
11 -7 20 -9 20 -10 0 -124 -61 -124 -66 0 -3 5 -14 10 -24 14 -27 -5 -35 -23
-10 l-14 20 -29 -22 c-16 -12 -41 -33 -56 -46 -26 -24 -27 -27 -11 -44 20 -23
9 -36 -17 -20 -27 16 -24 18 -66 -33 l-37 -46 22 -15 c26 -18 19 -39 -9 -24
-30 16 -33 13 -65 -46 l-30 -55 23 -17 c28 -21 19 -34 -14 -22 -22 9 -24 6
-44 -57 -21 -68 -18 -82 18 -83 6 0 12 -4 12 -10 0 -5 -13 -10 -29 -10 -27 0
-29 -3 -35 -52 -10 -84 -9 -88 19 -88 16 0 25 -6 25 -15 0 -9 -9 -15 -25 -15
-28 0 -29 -7 -19 -82 6 -43 7 -44 36 -40 23 4 29 1 26 -9 -3 -8 -14 -15 -26
-17 -26 -4 -27 -19 -3 -87 17 -50 20 -53 54 -40 12 5 17 2 17 -9 0 -9 -3 -16
-7 -16 -5 0 -14 -4 -21 -9 -11 -6 -7 -21 17 -70 17 -33 34 -61 36 -61 3 0 14
5 25 12 28 18 39 0 12 -21 l-24 -17 41 -52 c45 -56 52 -60 71 -37 9 11 16 13
23 6 7 -7 5 -17 -7 -30 -16 -18 -15 -20 27 -55 49 -40 62 -43 75 -20 5 9 15
14 21 10 8 -5 7 -13 -4 -29 -14 -20 -13 -23 43 -54 67 -39 69 -39 77 -13 3 11
13 20 20 20 11 0 12 -6 5 -26 -9 -23 -7 -26 23 -39 17 -7 48 -16 68 -20 31 -6
37 -4 42 14 7 30 30 27 25 -3 -6 -29 11 -36 90 -36 49 0 52 1 52 26 0 31 24
28 28 -5 3 -20 8 -22 60 -19 54 3 57 5 60 31 4 34 20 35 28 3 3 -14 11 -23 17
-21 7 2 38 11 70 20 53 15 57 17 46 36 -8 15 -8 24 0 32 7 7 13 2 20 -17 l11
-26 52 26 c75 37 79 42 65 64 -15 25 1 40 17 17 19 -24 26 -22 81 27 48 42 49
44 32 63 -22 25 -10 39 15 16 17 -15 19 -15 39 3 12 10 30 32 41 47 19 27 19
29 2 48 -22 24 -13 34 16 19 26 -14 26 -13 66 63 l24 47 -26 10 c-31 12 -24
25 13 25 22 0 29 8 45 55 21 62 18 80 -13 80 -12 0 -19 5 -16 13 2 6 15 11 29
9 22 -3 26 1 31 35 4 21 7 53 7 71 0 28 -3 32 -25 32 -16 0 -25 6 -25 15 0 9
9 15 25 15 22 0 25 4 25 34 0 18 -3 48 -6 65 -6 26 -10 30 -30 25 -18 -5 -24
-2 -24 10 0 9 8 16 20 16 24 0 25 18 4 89 -12 42 -19 51 -32 46 -28 -11 -34
-11 -39 2 -2 6 5 14 16 18 26 8 26 16 0 68 -32 63 -38 68 -61 56 -13 -7 -23
-8 -30 -1 -7 7 -3 14 11 21 12 7 21 15 21 19 0 5 -20 31 -44 60 -37 43 -46 49
-56 37 -13 -15 -40 -21 -40 -8 0 3 7 14 16 24 15 17 14 20 -17 46 -64 54 -62
54 -81 30 -20 -26 -37 -14 -20 13 7 11 12 22 12 24 0 7 -106 66 -118 66 -5 0
-12 -9 -15 -20 -8 -32 -30 -24 -22 8 6 27 3 30 -46 45 -69 23 -89 22 -89 -3 0
-12 -7 -20 -16 -20 -12 0 -15 6 -10 24 7 29 -3 33 -84 38 -53 3 -55 2 -58 -24
-4 -38 -22 -36 -22 2 0 18 -5 29 -12 28 -7 -1 -37 -3 -66 -5z m288 -231 c396
-130 568 -594 352 -950 -110 -183 -300 -297 -513 -309 -192 -11 -356 52 -494
191 -128 129 -188 272 -188 451 0 182 59 323 192 455 94 93 183 146 296 174
87 22 270 16 355 -12z"/>
<path d="M15830 1804 c-215 -42 -401 -214 -455 -419 -19 -74 -19 -223 0 -295
63 -236 275 -410 520 -427 167 -11 313 45 436 167 121 119 173 243 172 410 -1
245 -155 460 -386 540 -61 21 -229 35 -287 24z m344 -127 c96 -51 186 -142
186 -190 0 -25 -168 -87 -238 -89 -63 -1 -82 22 -93 113 -25 217 -2 243 145
166z m-330 17 c11 -30 6 -228 -7 -254 -7 -13 -24 -31 -39 -40 -25 -14 -35 -13
-120 9 -134 34 -158 45 -158 75 0 53 120 166 222 211 45 19 94 19 102 -1z
m130 -280 c18 -18 18 -17 10 -38 -17 -44 -84 -38 -84 7 0 44 43 62 74 31z
m-136 -128 c10 -47 -60 -64 -80 -20 -11 23 -10 29 11 45 21 17 26 18 45 6 12
-8 22 -22 24 -31z m286 12 c15 -24 -3 -52 -37 -56 -33 -4 -53 28 -37 59 14 25
58 23 74 -3z m300 -24 c57 -56 -49 -364 -125 -364 -33 0 -159 180 -159 228 0
55 18 69 160 119 111 38 104 37 124 17z m-818 -30 c144 -43 164 -87 93 -209
-52 -90 -87 -135 -103 -135 -72 0 -182 265 -147 353 13 33 19 33 157 -9z m268
-100 c20 -19 20 -48 1 -64 -19 -16 -45 -9 -62 17 -13 19 -12 24 6 42 25 25 35
26 55 5z m190 -16 c15 -24 -3 -52 -37 -56 -33 -4 -53 28 -37 59 14 25 58 23
74 -3z m-85 -117 c18 -10 129 -149 149 -187 27 -51 -50 -85 -190 -85 -89 0
-146 13 -179 40 -21 17 -22 21 -11 46 18 38 95 138 132 169 33 27 68 33 99 17z"/>
<path d="M17633 2063 c-16 -3 -23 -11 -23 -29 0 -13 -4 -24 -10 -24 -5 0 -10
7 -10 15 0 25 -25 28 -84 11 -54 -16 -55 -17 -49 -46 6 -34 -12 -42 -22 -10
-8 25 -16 25 -68 -1 -63 -32 -68 -38 -56 -61 15 -27 3 -35 -20 -14 -19 17 -21
17 -48 -2 -15 -11 -39 -32 -52 -46 -23 -24 -23 -27 -8 -44 22 -24 9 -37 -15
-15 -17 15 -20 15 -49 -13 -45 -43 -55 -65 -35 -79 16 -12 22 -35 9 -35 -3 0
-14 7 -24 16 -16 15 -20 12 -48 -38 -36 -63 -38 -74 -10 -83 11 -4 18 -12 16
-18 -5 -13 -11 -13 -39 -2 -14 5 -20 -5 -36 -57 -22 -69 -21 -78 9 -78 10 0
19 -7 19 -15 0 -11 -8 -13 -30 -8 -27 5 -30 3 -30 -19 0 -14 -3 -46 -6 -72 -7
-45 -6 -46 20 -46 16 0 26 -5 26 -15 0 -10 -10 -15 -26 -15 -26 0 -27 -1 -20
-46 3 -26 6 -53 6 -60 0 -9 11 -14 30 -14 17 0 30 -4 30 -10 0 -5 -6 -10 -12
-10 -36 -1 -40 -16 -22 -79 16 -60 18 -62 45 -56 33 8 41 -14 9 -22 -27 -7
-25 -19 10 -80 32 -55 39 -60 57 -42 6 6 17 8 23 4 9 -6 6 -13 -10 -25 l-23
-18 31 -39 c49 -63 59 -69 80 -49 24 21 37 8 15 -16 -15 -17 -15 -19 3 -39 10
-12 32 -30 47 -41 27 -19 29 -19 48 -2 21 19 40 11 21 -8 -22 -22 -13 -35 46
-66 l59 -32 12 26 c14 32 34 23 21 -11 -9 -23 -6 -25 56 -45 80 -24 72 -24 76
2 5 34 30 36 26 2 -3 -26 0 -29 37 -36 78 -14 95 -11 95 17 0 16 6 25 15 25 9
0 15 -9 15 -25 0 -28 7 -29 82 -19 40 6 44 9 40 29 -6 32 16 42 24 10 7 -30
11 -30 81 -8 51 16 53 18 48 45 -8 33 7 37 27 7 l14 -21 51 26 c59 30 69 41
53 61 -6 8 -8 19 -4 26 5 8 12 5 24 -11 19 -25 18 -26 93 35 33 27 35 31 21
47 -23 24 -8 44 17 22 17 -16 20 -15 46 16 44 51 47 60 28 80 -18 20 -7 34 15
19 25 -15 29 -11 60 50 29 58 29 60 10 66 -11 4 -20 13 -20 20 0 11 6 12 25 5
28 -11 28 -11 49 59 20 69 20 69 -4 73 -29 4 -24 23 4 21 20 -1 25 5 30 35 3
20 6 52 6 70 0 28 -3 32 -25 32 -16 0 -25 6 -25 15 0 9 9 15 25 15 22 0 25 4
25 34 0 18 -3 47 -6 63 -5 25 -10 29 -30 25 -29 -5 -33 17 -4 25 24 6 25 14 4
82 -14 48 -18 52 -39 47 -13 -3 -27 -1 -30 5 -4 6 2 13 14 16 28 7 26 25 -6
84 -27 47 -45 60 -58 39 -9 -15 -25 -12 -25 4 0 8 7 16 15 20 22 8 19 18 -26
75 -40 50 -42 51 -60 35 -25 -22 -37 -10 -15 15 16 17 14 20 -28 55 -50 41
-61 43 -75 19 -7 -14 -13 -15 -21 -7 -8 8 -9 14 -1 18 22 14 10 35 -35 60 -56
31 -71 32 -79 6 -9 -28 -26 -14 -23 18 3 23 -2 27 -56 44 -63 19 -76 17 -76
-13 0 -12 -5 -19 -12 -16 -7 2 -12 15 -10 29 3 23 -1 26 -44 32 -83 11 -94 9
-94 -19 0 -16 -6 -25 -15 -25 -9 0 -15 9 -15 25 0 22 -4 25 -37 24 -21 -1 -48
-4 -60 -6z m249 -208 c230 -48 428 -243 483 -476 19 -80 19 -194 1 -281 -38
-176 -171 -346 -336 -427 -255 -125 -533 -80 -730 118 -118 119 -175 245 -186
411 -20 291 185 576 466 648 73 19 82 20 160 21 41 0 105 -6 142 -14z"/>
<path d="M17606 1785 c-192 -49 -347 -195 -407 -385 -28 -85 -30 -230 -5 -315
60 -203 225 -357 431 -400 88 -18 142 -18 227 0 99 20 189 68 263 136 113 106
172 227 182 376 18 258 -134 486 -383 574 -79 27 -228 34 -308 14z m361 -111
c67 -32 162 -118 180 -163 14 -32 13 -36 -3 -48 -24 -18 -198 -73 -229 -73
-13 0 -37 11 -52 24 -28 24 -28 26 -31 151 -4 141 -1 150 53 140 17 -3 54 -17
82 -31z m-313 4 c13 -51 6 -202 -12 -238 -27 -55 -55 -59 -180 -27 -58 15
-113 33 -120 41 -24 23 -6 61 56 124 101 102 241 156 256 100z m120 -264 c20
-20 20 -38 0 -59 -20 -20 -42 -16 -60 10 -12 18 -11 24 2 43 18 26 37 28 58 6z
m-134 -114 c8 -14 8 -26 0 -40 -19 -35 -80 -20 -80 20 0 40 61 55 80 20z m280
5 c7 -9 10 -25 6 -40 -6 -22 -11 -26 -39 -23 -25 2 -33 8 -35 26 -7 44 41 70
68 37z m306 -41 c15 -22 16 -35 7 -94 -19 -122 -105 -273 -147 -257 -20 8
-123 154 -137 195 -14 42 -5 78 25 97 22 15 211 85 228 85 4 0 15 -12 24 -26z
m-847 -9 c194 -52 210 -89 112 -246 -52 -82 -63 -94 -87 -94 -57 0 -132 140
-142 267 -3 46 -1 73 8 83 7 8 13 15 14 15 0 0 43 -11 95 -25z m305 -111 c9
-8 16 -20 16 -26 0 -15 -30 -48 -43 -48 -15 0 -47 31 -47 46 0 17 28 44 45 44
7 0 21 -7 29 -16z m170 3 c38 -27 -2 -95 -41 -71 -25 16 -29 55 -7 71 10 7 21
13 24 13 3 0 14 -6 24 -13z m-56 -144 c22 -20 116 -142 133 -174 20 -38 -16
-63 -114 -79 -115 -18 -267 16 -267 60 0 23 57 107 111 163 37 39 52 47 81 47
20 0 45 -8 56 -17z"/>
<path d="M14152 1975 c-151 -35 -273 -106 -385 -225 -133 -141 -197 -308 -197
-515 0 -206 64 -374 197 -515 155 -165 332 -240 566 -240 248 0 469 109 584
287 53 83 51 89 -43 127 l-80 33 -33 -63 c-43 -83 -131 -165 -208 -194 -69
-26 -183 -28 -258 -6 -181 55 -299 242 -320 508 -21 262 98 520 283 614 53 27
66 29 167 29 106 0 112 -1 173 -34 77 -42 135 -105 173 -188 l29 -63 48 19
c26 11 64 27 85 35 l38 17 -36 67 c-67 129 -204 238 -360 289 -67 22 -102 26
-220 29 -97 2 -159 -1 -203 -11z"/>
<path d="M8364 1942 c4 -10 125 -335 269 -723 l264 -704 185 -3 186 -2 20 57
c25 74 478 1352 487 1376 7 16 -3 17 -117 17 l-124 0 -179 -576 c-98 -316
-182 -577 -185 -579 -4 -3 -97 256 -206 575 l-199 580 -203 0 c-192 0 -203 -1
-198 -18z"/>
<path d="M9960 1235 l0 -725 520 0 520 0 0 90 0 90 -320 0 -320 0 0 225 0 225
250 0 250 0 0 90 0 90 -250 0 -250 0 0 230 0 230 320 0 320 0 0 90 0 90 -520
0 -520 0 0 -725z"/>
<path d="M11250 1235 l0 -725 200 0 200 0 0 315 0 315 270 0 270 0 0 -315 0
-315 200 0 200 0 0 725 0 725 -200 0 -200 0 -2 -317 -3 -318 -265 0 -265 0 -3
318 -2 317 -200 0 -200 0 0 -725z"/>
<path d="M12920 1235 l0 -725 200 0 200 0 0 725 0 725 -200 0 -200 0 0 -725z"/>
<path d="M18760 1235 l0 -725 525 0 525 0 0 90 0 90 -325 0 -325 0 0 635 0
635 -200 0 -200 0 0 -725z"/>
<path d="M6090 1022 c45 -30 109 -101 134 -150 116 -228 -19 -496 -272 -542
-166 -30 -330 59 -405 218 -27 58 -31 78 -32 152 0 80 3 92 38 162 24 50 53
91 82 116 25 22 45 43 45 46 0 4 -31 -9 -70 -30 -120 -63 -209 -170 -261 -313
-20 -57 -21 -69 -11 -120 35 -172 186 -342 356 -401 302 -107 627 48 732 349
34 96 33 142 -4 229 -57 136 -155 236 -278 281 -65 25 -89 26 -54 3z"/>
<path d="M1908 946 c24 -26 56 -73 70 -104 23 -49 27 -70 27 -152 0 -87 -3
-101 -32 -161 -40 -80 -111 -150 -191 -187 -79 -37 -208 -38 -297 -3 -83 34
-173 124 -204 206 -48 125 -32 265 39 363 46 65 16 50 -65 -30 -79 -80 -131
-172 -162 -290 l-17 -66 42 -86 c170 -341 616 -424 896 -166 106 98 185 253
173 341 -7 55 -78 196 -126 251 -43 48 -128 110 -171 123 -22 7 -20 2 18 -39z"/>
</g>
</svg>
