<?xml version="1.0" encoding="UTF-8"?>
<!DOCTYPE svg PUBLIC "-//W3C//DTD SVG 1.1//EN" "http://www.w3.org/Graphics/SVG/1.1/DTD/svg11.dtd">
<svg xmlns="http://www.w3.org/2000/svg" version="1.1" width="1195px" height="209px" style="shape-rendering:geometricPrecision; text-rendering:geometricPrecision; image-rendering:optimizeQuality; fill-rule:evenodd; clip-rule:evenodd" xmlns:xlink="http://www.w3.org/1999/xlink">
<g><path style="opacity:0.004" fill="#000000" d="M 321.5,59.5 C 322.833,60.1667 322.833,60.1667 321.5,59.5 Z"/></g>
<g><path style="opacity:0.996" fill="#282b33" d="M 759.5,65.5 C 767.174,65.3336 774.841,65.5003 782.5,66C 783.158,72.7563 783.491,79.5897 783.5,86.5C 782.481,106.841 782.314,127.174 783,147.5C 782.667,148.167 782.333,148.833 782,149.5C 774.551,148.291 767.051,148.291 759.5,149.5C 759.5,121.5 759.5,93.5 759.5,65.5 Z"/></g>
<g><path style="opacity:1" fill="#282b33" d="M 593.5,65.5 C 613.5,65.5 633.5,65.5 653.5,65.5C 653.689,69.3482 653.689,73.0149 653.5,76.5C 641.518,77.499 629.518,77.8323 617.5,77.5C 617.5,85.1667 617.5,92.8333 617.5,100.5C 626.391,100.641 635.058,100.641 643.5,100.5C 644.086,100.709 644.586,101.043 645,101.5C 645.167,102.833 645.333,104.167 645.5,105.5C 645.046,108.238 644.713,110.738 644.5,113C 635.506,113.5 626.506,113.666 617.5,113.5C 617.5,121.167 617.5,128.833 617.5,136.5C 629.5,136.5 641.5,136.5 653.5,136.5C 653.931,141.032 653.431,145.365 652,149.5C 632.639,148.566 613.306,148.233 594,148.5C 593.5,120.835 593.333,93.1687 593.5,65.5 Z"/></g>
<g><path style="opacity:0.999" fill="#282b33" d="M 666.5,65.5 C 674.167,65.5 681.833,65.5 689.5,65.5C 689.5,77.1667 689.5,88.8333 689.5,100.5C 699.073,100.763 708.74,100.763 718.5,100.5C 718.812,89.1154 718.478,77.7821 717.5,66.5C 725.725,65.1854 733.892,65.1854 742,66.5C 742.167,75.3333 742.333,84.1667 742.5,93C 741.81,110.863 741.81,128.53 742.5,146C 742.22,147.395 741.553,148.562 740.5,149.5C 732.956,148.754 725.456,148.421 718,148.5C 718.456,136.916 718.622,125.25 718.5,113.5C 708.833,113.5 699.167,113.5 689.5,113.5C 689.667,125.171 689.5,136.838 689,148.5C 681.722,148.697 674.388,148.697 667,148.5C 666.5,120.835 666.333,93.1687 666.5,65.5 Z"/></g>
<g><path style="opacity:1" fill="#282b33" d="M 1086.5,63.5 C 1087.29,63.7828 1087.96,64.2828 1088.5,65C 1095.49,65.4996 1102.49,65.6663 1109.5,65.5C 1109.5,89.1667 1109.5,112.833 1109.5,136.5C 1121.5,136.5 1133.5,136.5 1145.5,136.5C 1145.8,140.767 1145.46,144.934 1144.5,149C 1124.93,148.511 1105.43,148.345 1086,148.5C 1086.47,120.099 1086.64,91.7655 1086.5,63.5 Z"/></g>
<g><path style="opacity:1" fill="#282a33" d="M 1022.5,63.5 C 1049.3,61.9493 1066.13,73.9493 1073,99.5C 1074.55,131.45 1059.38,148.45 1027.5,150.5C 991.888,146.928 977.388,127.594 984,92.5C 990.728,74.7202 1003.56,65.0535 1022.5,63.5 Z M 1019.5,75.5 C 1030.52,72.8476 1039.18,76.0143 1045.5,85C 1045.17,85.3333 1044.83,85.6667 1044.5,86C 1045.89,87.1711 1046.73,88.6711 1047,90.5C 1048.96,101.497 1048.96,112.497 1047,123.5C 1040.31,139.309 1029.48,142.976 1014.5,134.5C 1008.76,126.319 1006.09,117.153 1006.5,107C 1006.45,98.8012 1007.95,90.9679 1011,83.5C 1013.4,80.262 1016.23,77.5954 1019.5,75.5 Z"/></g>
<g><path style="opacity:0.999" fill="#282b33" d="M 324.5,139.5 C 324.875,138.207 325.208,136.874 325.5,135.5C 326.338,135.158 326.672,134.492 326.5,133.5C 327.338,133.158 327.672,132.492 327.5,131.5C 327.833,130.833 328.167,130.167 328.5,129.5C 329.338,129.158 329.672,128.492 329.5,127.5C 330.833,127.167 330.833,126.833 329.5,126.5C 329.167,126.5 328.833,126.5 328.5,126.5C 328.167,125.167 327.833,125.167 327.5,126.5C 326.833,126.5 326.5,126.833 326.5,127.5C 326.5,127.833 326.5,128.167 326.5,128.5C 325.833,128.5 325.5,128.833 325.5,129.5C 325.5,129.833 325.5,130.167 325.5,130.5C 324.833,130.5 324.5,130.833 324.5,131.5C 323.662,131.842 323.328,132.508 323.5,133.5C 323.371,135.216 323.038,136.883 322.5,138.5C 321.137,142.492 320.137,146.659 319.5,151C 266.82,152.067 214.153,153.567 161.5,155.5C 161.207,145.044 158.373,135.377 153,126.5C 151.296,124.627 149.463,122.96 147.5,121.5C 147.027,120.094 146.027,119.427 144.5,119.5C 144.389,120.117 144.056,120.617 143.5,121C 144.736,122.085 146.069,122.918 147.5,123.5C 152.393,128.617 155.726,134.617 157.5,141.5C 152.281,160.86 139.614,169.36 119.5,167C 107.331,163.474 99.3309,156.14 95.5,145C 96.2598,143.559 96.9264,142.059 97.5,140.5C 97.0302,139.537 96.3635,139.537 95.5,140.5C 95.1667,136.5 94.8333,136.5 94.5,140.5C 93.5608,144.249 92.5608,148.083 91.5,152C 81.9043,152.359 72.4043,153.192 63,154.5C 59.8239,144.361 57.3239,134.528 55.5,125C 56.2887,123.374 57.2887,121.874 58.5,120.5C 57.5022,117.972 56.6689,117.972 56,120.5C 55.5172,119.552 55.3505,118.552 55.5,117.5C 56.2389,117.631 56.9056,117.464 57.5,117C 54.3874,111.947 51.3874,106.781 48.5,101.5C 49.3128,100.186 50.3128,99.0195 51.5,98C 63.207,92.6521 75.5403,89.3188 88.5,88C 94.8855,84.0479 101.886,82.5479 109.5,83.5C 140.16,84.5903 170.826,85.4236 201.5,86C 203.783,88.19 206.449,88.8567 209.5,88C 219.93,78.5576 230.597,69.5576 241.5,61C 239.413,60.2078 237.579,59.0412 236,57.5C 235.251,56.365 235.417,55.365 236.5,54.5C 242.656,52.6031 248.989,51.4364 255.5,51C 275.9,49.9257 296.233,50.5923 316.5,53C 318.484,55.1345 319.818,57.6345 320.5,60.5C 324.398,61.975 328.398,63.1417 332.5,64C 347.024,66.1069 361.358,69.1069 375.5,73C 380.543,72.0029 385.543,72.3362 390.5,74C 405.997,79.7081 421.997,82.5415 438.5,82.5C 437.807,92.4636 439.141,102.13 442.5,111.5C 441.284,115.321 439.784,118.988 438,122.5C 431.862,129.308 425.695,136.141 419.5,143C 409.901,144.944 400.234,145.944 390.5,146C 389.718,143.26 389.218,140.426 389,137.5C 388.71,139.952 388.044,142.285 387,144.5C 387.789,141.143 387.456,137.809 386,134.5C 385.322,154.512 374.989,165.512 355,167.5C 337.241,166.231 327.074,156.898 324.5,139.5 Z M 331.5,76.5 C 332.815,78.9758 333.982,78.6424 335,75.5C 335.279,79.3859 334.446,83.0525 332.5,86.5C 331.376,81.2792 330.542,81.2792 330,86.5C 329.326,82.8877 329.826,79.5544 331.5,76.5 Z M 321.5,74.5 C 321.821,76.0481 322.821,76.7148 324.5,76.5C 324.508,80.8056 323.508,84.8056 321.5,88.5C 320.304,88.1543 320.304,87.6543 321.5,87C 320.552,86.5172 319.552,86.3505 318.5,86.5C 318.898,82.2393 319.898,78.2393 321.5,74.5 Z M 260.5,63.5 C 276.35,62.8127 292.017,64.146 307.5,67.5C 307.931,68.2935 308.265,69.1268 308.5,70C 307.519,76.0617 305.853,81.895 303.5,87.5C 301.234,88.3142 298.9,88.8142 296.5,89C 274.258,89.5119 252.092,90.3452 230,91.5C 238.048,79.9556 248.215,70.6223 260.5,63.5 Z M 341.5,77.5 C 342.268,78.2625 342.768,79.2625 343,80.5C 343.725,78.842 344.892,78.342 346.5,79C 345.718,81.7405 345.218,84.5738 345,87.5C 343.186,88.7596 341.353,88.7596 339.5,87.5C 340.382,84.2094 341.048,80.876 341.5,77.5 Z M 352.5,80.5 C 355.216,80.6785 357.883,81.1785 360.5,82C 361.747,83.4579 361.747,84.9579 360.5,86.5C 357.216,87.657 353.882,87.8236 350.5,87C 351.23,84.846 351.897,82.6794 352.5,80.5 Z M 329.5,112.5 C 327.263,114.324 324.929,115.991 322.5,117.5C 320.395,117.139 318.562,118.139 317,120.5C 316.601,120.272 316.435,119.938 316.5,119.5C 317.29,118.206 318.29,117.039 319.5,116C 319.167,115.667 318.833,115.333 318.5,115C 299.17,114.5 279.836,114.333 260.5,114.5C 277.995,113.668 295.662,113.168 313.5,113C 293.662,112.832 273.996,112.332 254.5,111.5C 277.725,111.674 300.725,111.34 323.5,110.5C 326.833,110.667 330.167,110.833 333.5,111C 332.099,111.41 330.766,111.91 329.5,112.5 Z M 371.5,115.5 C 368.859,114.737 366.192,114.57 363.5,115C 366.666,115.322 369.333,116.489 371.5,118.5C 369.45,118.039 367.45,117.372 365.5,116.5C 364.692,116.808 364.025,117.308 363.5,118C 375.069,125.494 377.569,135.327 371,147.5C 361.9,157.117 352.067,157.95 341.5,150C 332.822,138.763 333.822,128.43 344.5,119C 341.904,117.203 342.237,115.869 345.5,115C 344.552,114.517 343.552,114.351 342.5,114.5C 351.304,112.017 360.304,111.851 369.5,114C 370.416,114.278 371.082,114.778 371.5,115.5 Z M 140.5,118.5 C 139.909,119.151 139.243,119.818 138.5,120.5C 145.686,127.477 147.52,135.811 144,145.5C 136.711,155.808 127.211,158.308 115.5,153C 110.039,148.915 107.039,143.415 106.5,136.5C 107.753,131.257 109.253,126.257 111,121.5C 107.368,124.13 104.035,127.13 101,130.5C 100.308,129.975 99.8076,129.308 99.5,128.5C 101.643,124.108 104.976,121.108 109.5,119.5C 110.058,118.21 111.058,117.377 112.5,117C 122.71,113.404 132.71,113.737 142.5,118C 141.906,118.464 141.239,118.631 140.5,118.5 Z M 340.5,116.5 C 341.525,116.897 341.692,117.563 341,118.5C 339.67,119.582 338.17,120.249 336.5,120.5C 337.833,119.167 339.167,117.833 340.5,116.5 Z M 321.5,118.5 C 321.5,119.833 320.833,120.5 319.5,120.5C 319.833,119.5 320.5,118.833 321.5,118.5 Z M 144.5,119.5 C 146.027,119.427 147.027,120.094 147.5,121.5C 146.494,121.938 146.494,122.604 147.5,123.5C 146.069,122.918 144.736,122.085 143.5,121C 144.056,120.617 144.389,120.117 144.5,119.5 Z M 377.5,119.5 C 379.833,119.833 381.167,121.167 381.5,123.5C 381.167,123.5 380.833,123.5 380.5,123.5C 379.5,122.167 378.5,120.833 377.5,119.5 Z M 335.5,120.5 C 335.833,120.5 336.167,120.5 336.5,120.5C 335.322,123.217 334.322,123.55 333.5,121.5C 334.167,121.167 334.833,120.833 335.5,120.5 Z M 378.5,123.5 C 379.167,123.5 379.833,123.5 380.5,123.5C 380.328,124.492 380.662,125.158 381.5,125.5C 381.5,125.833 381.5,126.167 381.5,126.5C 379.856,126.19 378.856,125.19 378.5,123.5 Z M 381.5,123.5 C 383.451,124.716 384.951,126.382 386,128.5C 386.74,129.749 386.573,130.749 385.5,131.5C 385.607,133.379 385.107,133.712 384,132.5C 382.878,130.593 382.045,128.593 381.5,126.5C 382.833,126.167 382.833,125.833 381.5,125.5C 381.5,124.833 381.5,124.167 381.5,123.5 Z M 316.5,125.5 C 315.62,128.262 314.454,130.929 313,133.5C 312.51,132.207 312.343,130.873 312.5,129.5C 313.833,128.167 315.167,126.833 316.5,125.5 Z M 329.5,127.5 C 329.672,128.492 329.338,129.158 328.5,129.5C 327.561,128.673 327.895,128.006 329.5,127.5 Z M 327.5,131.5 C 327.672,132.492 327.338,133.158 326.5,133.5C 325.561,132.673 325.895,132.006 327.5,131.5 Z M 98.5,132.5 C 100.646,132.696 100.812,133.696 99,135.5C 98.5172,134.552 98.3505,133.552 98.5,132.5 Z M 309.5,132.5 C 309.944,134.113 310.944,135.28 312.5,136C 304.173,136.5 295.84,136.666 287.5,136.5C 281.495,135.998 275.495,135.832 269.5,136C 271.058,136.21 272.391,136.71 273.5,137.5C 257.83,137.667 242.163,137.5 226.5,137C 248.135,135.286 269.801,134.453 291.5,134.5C 297.399,133.795 303.399,133.128 309.5,132.5 Z"/></g>
<g><path style="opacity:0.999" fill="#282b33" d="M 835.5,63.5 C 853.87,62.0403 867.203,69.3736 875.5,85.5C 872.632,89.2323 868.965,90.5656 864.5,89.5C 859.017,77.2127 849.683,72.7127 836.5,76C 823.606,84.6333 818.106,96.8 820,112.5C 821.905,131.847 832.405,140.347 851.5,138C 853.167,137 854.833,136 856.5,135C 859.845,131.181 863.012,127.348 866,123.5C 869.605,124.714 872.771,126.548 875.5,129C 867.585,143.224 855.418,150.391 839,150.5C 812.511,148.011 798.011,133.511 795.5,107C 796.274,90.1645 803.94,77.1645 818.5,68C 824.1,65.7355 829.767,64.2355 835.5,63.5 Z"/></g>
<g><path style="opacity:0.999" fill="#282b33" d="M 504.5,64.5 C 512.334,65.1516 520.167,65.8182 528,66.5C 535.133,87.5642 542.466,108.564 550,129.5C 557.035,108.641 563.535,87.3073 569.5,65.5C 574.099,65.8 578.599,65.4667 583,64.5C 583.925,65.0465 584.758,65.7132 585.5,66.5C 576.048,90.9899 567.215,115.657 559,140.5C 557.973,143.754 556.473,146.754 554.5,149.5C 549.025,148.24 543.525,148.24 538,149.5C 536.893,149.415 535.893,149.081 535,148.5C 524.541,121.491 514.041,94.1573 503.5,66.5C 503.863,65.8165 504.196,65.1499 504.5,64.5 Z"/></g>
<g><path style="opacity:0.999" fill="#282b33" d="M 923.5,63.5 C 946.64,61.8563 962.807,71.5229 972,92.5C 978.082,127.694 963.416,147.027 928,150.5C 895.468,147.637 880.801,129.97 884,97.5C 889.37,76.9544 902.537,65.6211 923.5,63.5 Z M 927.5,74.5 C 940.351,75.4448 947.518,82.4448 949,95.5C 951.266,108.037 949.599,120.037 944,131.5C 941.795,134.04 939.295,136.207 936.5,138C 920.665,141.503 911.165,135.336 908,119.5C 905.724,107.376 906.724,95.7098 911,84.5C 914.811,78.1857 920.311,74.8523 927.5,74.5 Z"/></g>
<g><path style="opacity:0.005" fill="#000000" d="M 250.5,112.5 C 251.568,111.566 252.901,111.232 254.5,111.5C 273.996,112.332 293.662,112.832 313.5,113C 295.662,113.168 277.995,113.668 260.5,114.5C 257.43,114.632 254.43,114.299 251.5,113.5C 251.5,112.833 251.167,112.5 250.5,112.5 Z"/></g>
<g><path style="opacity:0.006" fill="#000000" d="M 618.5,115.5 C 618.897,114.475 619.563,114.308 620.5,115C 619.906,115.464 619.239,115.631 618.5,115.5 Z"/></g>
<g><path style="opacity:0.006" fill="#000000" d="M 690.5,115.5 C 690.897,114.475 691.563,114.308 692.5,115C 691.906,115.464 691.239,115.631 690.5,115.5 Z"/></g>
<g><path style="opacity:0.004" fill="#000000" d="M 715.5,114.5 C 716.833,115.167 716.833,115.167 715.5,114.5 Z"/></g>
<g><path style="opacity:0.004" fill="#000000" d="M 55.5,117.5 C 54.8333,116.167 54.8333,116.167 55.5,117.5 Z"/></g>
<g><path style="opacity:0.005" fill="#0a0b0e" d="M 322.5,117.5 C 322.5,118.167 322.167,118.5 321.5,118.5C 320.5,118.833 319.833,119.5 319.5,120.5C 318.167,120.833 318.167,121.167 319.5,121.5C 319.229,123.43 318.229,124.764 316.5,125.5C 315.167,126.833 313.833,128.167 312.5,129.5C 312.5,128.5 312.5,127.5 312.5,126.5C 313.833,126.167 313.833,125.833 312.5,125.5C 313.008,123.767 313.841,123.434 315,124.5C 316.38,123.744 316.547,123.078 315.5,122.5C 315.263,121.209 315.596,120.209 316.5,119.5C 316.435,119.938 316.601,120.272 317,120.5C 318.562,118.139 320.395,117.139 322.5,117.5 Z"/></g>
<g><path style="opacity:0.012" fill="#000055" d="M 333.5,119.5 C 334.492,119.328 335.158,119.662 335.5,120.5C 334.833,120.833 334.167,121.167 333.5,121.5C 333.5,120.833 333.5,120.167 333.5,119.5 Z"/></g>
<g><path style="opacity:0.006" fill="#000000" d="M 327.5,126.5 C 327.833,126.5 328.167,126.5 328.5,126.5C 328.833,126.5 329.167,126.5 329.5,126.5C 329.5,126.833 329.5,127.167 329.5,127.5C 327.895,128.006 327.561,128.673 328.5,129.5C 328.167,130.167 327.833,130.833 327.5,131.5C 325.895,132.006 325.561,132.673 326.5,133.5C 326.672,134.492 326.338,135.158 325.5,135.5C 325.208,136.874 324.875,138.207 324.5,139.5C 323.579,139.93 323.079,141.264 323,143.5C 322.506,141.866 322.34,140.199 322.5,138.5C 323.038,136.883 323.371,135.216 323.5,133.5C 324.338,133.158 324.672,132.492 324.5,131.5C 325.167,131.5 325.5,131.167 325.5,130.5C 325.5,130.167 325.5,129.833 325.5,129.5C 326.167,129.5 326.5,129.167 326.5,128.5C 326.5,128.167 326.5,127.833 326.5,127.5C 327.167,127.5 327.5,127.167 327.5,126.5 Z"/></g>
<g><path style="opacity:0.004" fill="#000000" d="M 1110.5,128.5 C 1111.63,130.628 1111.8,132.961 1111,135.5C 1110.5,133.19 1110.34,130.857 1110.5,128.5 Z"/></g>
<g><path style="opacity:0.005" fill="#000000" d="M 287.5,136.5 C 283.03,137.486 278.363,137.819 273.5,137.5C 272.391,136.71 271.058,136.21 269.5,136C 275.495,135.832 281.495,135.998 287.5,136.5 Z"/></g>
<g><path style="opacity:0.005" fill="#000000" d="M 210.5,137.5 C 213.625,136.521 216.958,136.187 220.5,136.5C 221.568,137.434 222.901,137.768 224.5,137.5C 221.375,138.479 218.042,138.813 214.5,138.5C 213.432,137.566 212.099,137.232 210.5,137.5 Z"/></g>
<g><path style="opacity:0.004" fill="#000000" d="M 94.5,140.5 C 94.8333,140.5 95.1667,140.5 95.5,140.5C 95.1667,143.167 94.8333,143.167 94.5,140.5 Z"/></g>
</svg>
